<?xml version="1.0" encoding="UTF-8" standalone="no"?>
<!DOCTYPE svg PUBLIC "-//W3C//DTD SVG 1.1//EN"
 "http://www.w3.org/Graphics/SVG/1.1/DTD/svg11.dtd">
<!-- Generated by graphviz version 2.28.0 (20110507.0327)
 -->
<!-- Title: controllers_diagram Pages: 1 -->
<svg width="892pt" height="905pt"
 viewBox="0.00 0.00 892.00 905.00" xmlns="http://www.w3.org/2000/svg" xmlns:xlink="http://www.w3.org/1999/xlink">
<g id="graph1" class="graph" transform="scale(1 1) rotate(0) translate(4 901)">
<title>controllers_diagram</title>
<polygon fill="white" stroke="white" points="-4,5 -4,-901 889,-901 889,5 -4,5"/>
<!-- _diagram_info -->
<g id="node1" class="node"><title>_diagram_info</title>
<text text-anchor="start" x="8" y="-109.6" font-family="Times New Roman,serif" font-size="13.00">Controllers diagram</text>
<text text-anchor="start" x="8" y="-95.6" font-family="Times New Roman,serif" font-size="13.00">Date: Mar 28 2012 &#45; 02:23</text>
<text text-anchor="start" x="8" y="-81.6" font-family="Times New Roman,serif" font-size="13.00">Migration version: 20120325084055</text>
<text text-anchor="start" x="8" y="-67.6" font-family="Times New Roman,serif" font-size="13.00">Generated by RailRoady 1.0.7</text>
<text text-anchor="start" x="8" y="-53.6" font-family="Times New Roman,serif" font-size="13.00">http://railroady.prestonlee.com</text>
</g>
<!-- AccesspinsController -->
<g id="node2" class="node"><title>AccesspinsController</title>
<polyline fill="none" stroke="black" points="265,-0.5 378,-0.5 "/>
<path fill="none" stroke="black" d="M378,-0.5C384,-0.5 390,-6.5 390,-12.5"/>
<polyline fill="none" stroke="black" points="390,-12.5 390,-156.5 "/>
<path fill="none" stroke="black" d="M390,-156.5C390,-162.5 384,-168.5 378,-168.5"/>
<polyline fill="none" stroke="black" points="378,-168.5 265,-168.5 "/>
<path fill="none" stroke="black" d="M265,-168.5C259,-168.5 253,-162.5 253,-156.5"/>
<polyline fill="none" stroke="black" points="253,-156.5 253,-12.5 "/>
<path fill="none" stroke="black" d="M253,-12.5C253,-6.5 259,-0.5 265,-0.5"/>
<text text-anchor="middle" x="321.5" y="-153.3" font-family="Times New Roman,serif" font-size="14.00">AccesspinsController</text>
<polyline fill="none" stroke="black" points="253,-145.5 390,-145.5 "/>
<text text-anchor="start" x="261" y="-130.3" font-family="Times New Roman,serif" font-size="14.00">create</text>
<text text-anchor="start" x="261" y="-115.3" font-family="Times New Roman,serif" font-size="14.00">dashboard</text>
<text text-anchor="start" x="261" y="-100.3" font-family="Times New Roman,serif" font-size="14.00">destroy</text>
<text text-anchor="start" x="261" y="-85.3" font-family="Times New Roman,serif" font-size="14.00">index</text>
<text text-anchor="start" x="261" y="-70.3" font-family="Times New Roman,serif" font-size="14.00">new</text>
<text text-anchor="start" x="261" y="-55.3" font-family="Times New Roman,serif" font-size="14.00">show</text>
<polyline fill="none" stroke="black" points="253,-47.5 390,-47.5 "/>
<polyline fill="none" stroke="black" points="253,-23.5 390,-23.5 "/>
<text text-anchor="start" x="261" y="-8.3" font-family="Times New Roman,serif" font-size="14.00">_layout</text>
</g>
<!-- ApplicationController -->
<g id="node3" class="node"><title>ApplicationController</title>
<polyline fill="none" stroke="black" points="518,-23.5 738,-23.5 "/>
<path fill="none" stroke="black" d="M738,-23.5C744,-23.5 750,-29.5 750,-35.5"/>
<polyline fill="none" stroke="black" points="750,-35.5 750,-163.5 "/>
<path fill="none" stroke="black" d="M750,-163.5C750,-169.5 744,-175.5 738,-175.5"/>
<polyline fill="none" stroke="black" points="738,-175.5 518,-175.5 "/>
<path fill="none" stroke="black" d="M518,-175.5C512,-175.5 506,-169.5 506,-163.5"/>
<polyline fill="none" stroke="black" points="506,-163.5 506,-35.5 "/>
<path fill="none" stroke="black" d="M506,-35.5C506,-29.5 512,-23.5 518,-23.5"/>
<text text-anchor="middle" x="628" y="-160.3" font-family="Times New Roman,serif" font-size="14.00">ApplicationController</text>
<polyline fill="none" stroke="black" points="506,-152.5 750,-152.5 "/>
<text text-anchor="start" x="514" y="-137.3" font-family="Times New Roman,serif" font-size="14.00">_one_time_conditions_valid_16?</text>
<text text-anchor="start" x="514" y="-122.3" font-family="Times New Roman,serif" font-size="14.00">_one_time_conditions_valid_18?</text>
<text text-anchor="start" x="514" y="-107.3" font-family="Times New Roman,serif" font-size="14.00">_one_time_conditions_valid_20?</text>
<polyline fill="none" stroke="black" points="506,-99.5 750,-99.5 "/>
<text text-anchor="start" x="514" y="-84.3" font-family="Times New Roman,serif" font-size="14.00">not_authenticated</text>
<polyline fill="none" stroke="black" points="506,-76.5 750,-76.5 "/>
<text text-anchor="start" x="514" y="-61.3" font-family="Times New Roman,serif" font-size="14.00">_layout</text>
<text text-anchor="start" x="514" y="-46.3" font-family="Times New Roman,serif" font-size="14.00">_run_process_action_callbacks</text>
<text text-anchor="start" x="514" y="-31.3" font-family="Times New Roman,serif" font-size="14.00">instantiate_controller_and_action_names</text>
</g>
<!-- BranchesController -->
<g id="node4" class="node"><title>BranchesController</title>
<polyline fill="none" stroke="black" points="771,-230.5 872,-230.5 "/>
<path fill="none" stroke="black" d="M872,-230.5C878,-230.5 884,-236.5 884,-242.5"/>
<polyline fill="none" stroke="black" points="884,-242.5 884,-431.5 "/>
<path fill="none" stroke="black" d="M884,-431.5C884,-437.5 878,-443.5 872,-443.5"/>
<polyline fill="none" stroke="black" points="872,-443.5 771,-443.5 "/>
<path fill="none" stroke="black" d="M771,-443.5C765,-443.5 759,-437.5 759,-431.5"/>
<polyline fill="none" stroke="black" points="759,-431.5 759,-242.5 "/>
<path fill="none" stroke="black" d="M759,-242.5C759,-236.5 765,-230.5 771,-230.5"/>
<text text-anchor="middle" x="821.5" y="-428.3" font-family="Times New Roman,serif" font-size="14.00">BranchesController</text>
<polyline fill="none" stroke="black" points="759,-420.5 884,-420.5 "/>
<text text-anchor="start" x="767" y="-405.3" font-family="Times New Roman,serif" font-size="14.00">admin_user</text>
<text text-anchor="start" x="767" y="-390.3" font-family="Times New Roman,serif" font-size="14.00">create</text>
<text text-anchor="start" x="767" y="-375.3" font-family="Times New Roman,serif" font-size="14.00">dashboard</text>
<text text-anchor="start" x="767" y="-360.3" font-family="Times New Roman,serif" font-size="14.00">destroy</text>
<text text-anchor="start" x="767" y="-345.3" font-family="Times New Roman,serif" font-size="14.00">edit</text>
<text text-anchor="start" x="767" y="-330.3" font-family="Times New Roman,serif" font-size="14.00">index</text>
<text text-anchor="start" x="767" y="-315.3" font-family="Times New Roman,serif" font-size="14.00">new</text>
<text text-anchor="start" x="767" y="-300.3" font-family="Times New Roman,serif" font-size="14.00">show</text>
<text text-anchor="start" x="767" y="-285.3" font-family="Times New Roman,serif" font-size="14.00">update</text>
<polyline fill="none" stroke="black" points="759,-277.5 884,-277.5 "/>
<polyline fill="none" stroke="black" points="759,-253.5 884,-253.5 "/>
<text text-anchor="start" x="767" y="-238.3" font-family="Times New Roman,serif" font-size="14.00">_layout</text>
</g>
<!-- CoursesController -->
<g id="node5" class="node"><title>CoursesController</title>
<polyline fill="none" stroke="black" points="587,-575.5 765,-575.5 "/>
<path fill="none" stroke="black" d="M765,-575.5C771,-575.5 777,-581.5 777,-587.5"/>
<polyline fill="none" stroke="black" points="777,-587.5 777,-806.5 "/>
<path fill="none" stroke="black" d="M777,-806.5C777,-812.5 771,-818.5 765,-818.5"/>
<polyline fill="none" stroke="black" points="765,-818.5 587,-818.5 "/>
<path fill="none" stroke="black" d="M587,-818.5C581,-818.5 575,-812.5 575,-806.5"/>
<polyline fill="none" stroke="black" points="575,-806.5 575,-587.5 "/>
<path fill="none" stroke="black" d="M575,-587.5C575,-581.5 581,-575.5 587,-575.5"/>
<text text-anchor="middle" x="676" y="-803.3" font-family="Times New Roman,serif" font-size="14.00">CoursesController</text>
<polyline fill="none" stroke="black" points="575,-795.5 777,-795.5 "/>
<text text-anchor="start" x="583" y="-780.3" font-family="Times New Roman,serif" font-size="14.00">_one_time_conditions_valid_22?</text>
<text text-anchor="start" x="583" y="-765.3" font-family="Times New Roman,serif" font-size="14.00">admin_user</text>
<text text-anchor="start" x="583" y="-750.3" font-family="Times New Roman,serif" font-size="14.00">create</text>
<text text-anchor="start" x="583" y="-735.3" font-family="Times New Roman,serif" font-size="14.00">dashboard</text>
<text text-anchor="start" x="583" y="-720.3" font-family="Times New Roman,serif" font-size="14.00">destroy</text>
<text text-anchor="start" x="583" y="-705.3" font-family="Times New Roman,serif" font-size="14.00">edit</text>
<text text-anchor="start" x="583" y="-690.3" font-family="Times New Roman,serif" font-size="14.00">index</text>
<text text-anchor="start" x="583" y="-675.3" font-family="Times New Roman,serif" font-size="14.00">new</text>
<text text-anchor="start" x="583" y="-660.3" font-family="Times New Roman,serif" font-size="14.00">show</text>
<text text-anchor="start" x="583" y="-645.3" font-family="Times New Roman,serif" font-size="14.00">update</text>
<polyline fill="none" stroke="black" points="575,-637.5 777,-637.5 "/>
<polyline fill="none" stroke="black" points="575,-613.5 777,-613.5 "/>
<text text-anchor="start" x="583" y="-598.3" font-family="Times New Roman,serif" font-size="14.00">_layout</text>
<text text-anchor="start" x="583" y="-583.3" font-family="Times New Roman,serif" font-size="14.00">_run_process_action_callbacks</text>
</g>
<!-- EmployeesController -->
<g id="node6" class="node"><title>EmployeesController</title>
<polyline fill="none" stroke="black" points="265,-207.5 443,-207.5 "/>
<path fill="none" stroke="black" d="M443,-207.5C449,-207.5 455,-213.5 455,-219.5"/>
<polyline fill="none" stroke="black" points="455,-219.5 455,-498.5 "/>
<path fill="none" stroke="black" d="M455,-498.5C455,-504.5 449,-510.5 443,-510.5"/>
<polyline fill="none" stroke="black" points="443,-510.5 265,-510.5 "/>
<path fill="none" stroke="black" d="M265,-510.5C259,-510.5 253,-504.5 253,-498.5"/>
<polyline fill="none" stroke="black" points="253,-498.5 253,-219.5 "/>
<path fill="none" stroke="black" d="M253,-219.5C253,-213.5 259,-207.5 265,-207.5"/>
<text text-anchor="middle" x="354" y="-495.3" font-family="Times New Roman,serif" font-size="14.00">EmployeesController</text>
<polyline fill="none" stroke="black" points="253,-487.5 455,-487.5 "/>
<text text-anchor="start" x="261" y="-472.3" font-family="Times New Roman,serif" font-size="14.00">_one_time_conditions_valid_25?</text>
<text text-anchor="start" x="261" y="-457.3" font-family="Times New Roman,serif" font-size="14.00">_one_time_conditions_valid_30?</text>
<text text-anchor="start" x="261" y="-442.3" font-family="Times New Roman,serif" font-size="14.00">_one_time_conditions_valid_34?</text>
<text text-anchor="start" x="261" y="-427.3" font-family="Times New Roman,serif" font-size="14.00">admin_user</text>
<text text-anchor="start" x="261" y="-412.3" font-family="Times New Roman,serif" font-size="14.00">correct_employee</text>
<text text-anchor="start" x="261" y="-397.3" font-family="Times New Roman,serif" font-size="14.00">create</text>
<text text-anchor="start" x="261" y="-382.3" font-family="Times New Roman,serif" font-size="14.00">dashboard</text>
<text text-anchor="start" x="261" y="-367.3" font-family="Times New Roman,serif" font-size="14.00">destroy</text>
<text text-anchor="start" x="261" y="-352.3" font-family="Times New Roman,serif" font-size="14.00">edit</text>
<text text-anchor="start" x="261" y="-337.3" font-family="Times New Roman,serif" font-size="14.00">index</text>
<text text-anchor="start" x="261" y="-322.3" font-family="Times New Roman,serif" font-size="14.00">new</text>
<text text-anchor="start" x="261" y="-307.3" font-family="Times New Roman,serif" font-size="14.00">register</text>
<text text-anchor="start" x="261" y="-292.3" font-family="Times New Roman,serif" font-size="14.00">show</text>
<text text-anchor="start" x="261" y="-277.3" font-family="Times New Roman,serif" font-size="14.00">update</text>
<polyline fill="none" stroke="black" points="253,-269.5 455,-269.5 "/>
<polyline fill="none" stroke="black" points="253,-245.5 455,-245.5 "/>
<text text-anchor="start" x="261" y="-230.3" font-family="Times New Roman,serif" font-size="14.00">_layout</text>
<text text-anchor="start" x="261" y="-215.3" font-family="Times New Roman,serif" font-size="14.00">_run_process_action_callbacks</text>
</g>
<!-- PagesController -->
<g id="node7" class="node"><title>PagesController</title>
<polyline fill="none" stroke="black" points="35,-368.5 205,-368.5 "/>
<path fill="none" stroke="black" d="M205,-368.5C211,-368.5 217,-374.5 217,-380.5"/>
<polyline fill="none" stroke="black" points="217,-380.5 217,-554.5 "/>
<path fill="none" stroke="black" d="M217,-554.5C217,-560.5 211,-566.5 205,-566.5"/>
<polyline fill="none" stroke="black" points="205,-566.5 35,-566.5 "/>
<path fill="none" stroke="black" d="M35,-566.5C29,-566.5 23,-560.5 23,-554.5"/>
<polyline fill="none" stroke="black" points="23,-554.5 23,-380.5 "/>
<path fill="none" stroke="black" d="M23,-380.5C23,-374.5 29,-368.5 35,-368.5"/>
<text text-anchor="middle" x="120" y="-551.3" font-family="Times New Roman,serif" font-size="14.00">PagesController</text>
<polyline fill="none" stroke="black" points="23,-543.5 217,-543.5 "/>
<text text-anchor="start" x="31" y="-528.3" font-family="Times New Roman,serif" font-size="14.00">blog</text>
<text text-anchor="start" x="31" y="-513.3" font-family="Times New Roman,serif" font-size="14.00">contact</text>
<text text-anchor="start" x="31" y="-498.3" font-family="Times New Roman,serif" font-size="14.00">help</text>
<text text-anchor="start" x="31" y="-483.3" font-family="Times New Roman,serif" font-size="14.00">home</text>
<text text-anchor="start" x="31" y="-468.3" font-family="Times New Roman,serif" font-size="14.00">ourcourses</text>
<text text-anchor="start" x="31" y="-453.3" font-family="Times New Roman,serif" font-size="14.00">whatwedo</text>
<text text-anchor="start" x="31" y="-438.3" font-family="Times New Roman,serif" font-size="14.00">whoweare</text>
<polyline fill="none" stroke="black" points="23,-430.5 217,-430.5 "/>
<polyline fill="none" stroke="black" points="23,-406.5 217,-406.5 "/>
<text text-anchor="start" x="31" y="-391.3" font-family="Times New Roman,serif" font-size="14.00">_layout</text>
<text text-anchor="start" x="31" y="-376.3" font-family="Times New Roman,serif" font-size="14.00">_run_process_action_callbacks</text>
</g>
<!-- PasswordResetsController -->
<g id="node8" class="node"><title>PasswordResetsController</title>
<polyline fill="none" stroke="black" points="35,-161.5 205,-161.5 "/>
<path fill="none" stroke="black" d="M205,-161.5C211,-161.5 217,-167.5 217,-173.5"/>
<polyline fill="none" stroke="black" points="217,-173.5 217,-302.5 "/>
<path fill="none" stroke="black" d="M217,-302.5C217,-308.5 211,-314.5 205,-314.5"/>
<polyline fill="none" stroke="black" points="205,-314.5 35,-314.5 "/>
<path fill="none" stroke="black" d="M35,-314.5C29,-314.5 23,-308.5 23,-302.5"/>
<polyline fill="none" stroke="black" points="23,-302.5 23,-173.5 "/>
<path fill="none" stroke="black" d="M23,-173.5C23,-167.5 29,-161.5 35,-161.5"/>
<text text-anchor="middle" x="120" y="-299.3" font-family="Times New Roman,serif" font-size="14.00">PasswordResetsController</text>
<polyline fill="none" stroke="black" points="23,-291.5 217,-291.5 "/>
<text text-anchor="start" x="31" y="-276.3" font-family="Times New Roman,serif" font-size="14.00">create</text>
<text text-anchor="start" x="31" y="-261.3" font-family="Times New Roman,serif" font-size="14.00">edit</text>
<text text-anchor="start" x="31" y="-246.3" font-family="Times New Roman,serif" font-size="14.00">new</text>
<text text-anchor="start" x="31" y="-231.3" font-family="Times New Roman,serif" font-size="14.00">update</text>
<polyline fill="none" stroke="black" points="23,-223.5 217,-223.5 "/>
<polyline fill="none" stroke="black" points="23,-199.5 217,-199.5 "/>
<text text-anchor="start" x="31" y="-184.3" font-family="Times New Roman,serif" font-size="14.00">_layout</text>
<text text-anchor="start" x="31" y="-169.3" font-family="Times New Roman,serif" font-size="14.00">_run_process_action_callbacks</text>
</g>
<!-- SessionsController -->
<g id="node9" class="node"><title>SessionsController</title>
<polyline fill="none" stroke="black" points="35,-713.5 205,-713.5 "/>
<path fill="none" stroke="black" d="M205,-713.5C211,-713.5 217,-719.5 217,-725.5"/>
<polyline fill="none" stroke="black" points="217,-725.5 217,-884.5 "/>
<path fill="none" stroke="black" d="M217,-884.5C217,-890.5 211,-896.5 205,-896.5"/>
<polyline fill="none" stroke="black" points="205,-896.5 35,-896.5 "/>
<path fill="none" stroke="black" d="M35,-896.5C29,-896.5 23,-890.5 23,-884.5"/>
<polyline fill="none" stroke="black" points="23,-884.5 23,-725.5 "/>
<path fill="none" stroke="black" d="M23,-725.5C23,-719.5 29,-713.5 35,-713.5"/>
<text text-anchor="middle" x="120" y="-881.3" font-family="Times New Roman,serif" font-size="14.00">SessionsController</text>
<polyline fill="none" stroke="black" points="23,-873.5 217,-873.5 "/>
<text text-anchor="start" x="31" y="-858.3" font-family="Times New Roman,serif" font-size="14.00">create</text>
<text text-anchor="start" x="31" y="-843.3" font-family="Times New Roman,serif" font-size="14.00">destroy</text>
<text text-anchor="start" x="31" y="-828.3" font-family="Times New Roman,serif" font-size="14.00">edit</text>
<text text-anchor="start" x="31" y="-813.3" font-family="Times New Roman,serif" font-size="14.00">index</text>
<text text-anchor="start" x="31" y="-798.3" font-family="Times New Roman,serif" font-size="14.00">new</text>
<text text-anchor="start" x="31" y="-783.3" font-family="Times New Roman,serif" font-size="14.00">show</text>
<polyline fill="none" stroke="black" points="23,-775.5 217,-775.5 "/>
<polyline fill="none" stroke="black" points="23,-751.5 217,-751.5 "/>
<text text-anchor="start" x="31" y="-736.3" font-family="Times New Roman,serif" font-size="14.00">_layout</text>
<text text-anchor="start" x="31" y="-721.3" font-family="Times New Roman,serif" font-size="14.00">_run_process_action_callbacks</text>
</g>
<!-- TrainersController -->
<g id="node10" class="node"><title>TrainersController</title>
<polyline fill="none" stroke="black" points="518,-230.5 696,-230.5 "/>
<path fill="none" stroke="black" d="M696,-230.5C702,-230.5 708,-236.5 708,-242.5"/>
<polyline fill="none" stroke="black" points="708,-242.5 708,-521.5 "/>
<path fill="none" stroke="black" d="M708,-521.5C708,-527.5 702,-533.5 696,-533.5"/>
<polyline fill="none" stroke="black" points="696,-533.5 518,-533.5 "/>
<path fill="none" stroke="black" d="M518,-533.5C512,-533.5 506,-527.5 506,-521.5"/>
<polyline fill="none" stroke="black" points="506,-521.5 506,-242.5 "/>
<path fill="none" stroke="black" d="M506,-242.5C506,-236.5 512,-230.5 518,-230.5"/>
<text text-anchor="middle" x="607" y="-518.3" font-family="Times New Roman,serif" font-size="14.00">TrainersController</text>
<polyline fill="none" stroke="black" points="506,-510.5 708,-510.5 "/>
<text text-anchor="start" x="514" y="-495.3" font-family="Times New Roman,serif" font-size="14.00">_one_time_conditions_valid_37?</text>
<text text-anchor="start" x="514" y="-480.3" font-family="Times New Roman,serif" font-size="14.00">_one_time_conditions_valid_42?</text>
<text text-anchor="start" x="514" y="-465.3" font-family="Times New Roman,serif" font-size="14.00">_one_time_conditions_valid_46?</text>
<text text-anchor="start" x="514" y="-450.3" font-family="Times New Roman,serif" font-size="14.00">admin_user</text>
<text text-anchor="start" x="514" y="-435.3" font-family="Times New Roman,serif" font-size="14.00">attendance</text>
<text text-anchor="start" x="514" y="-420.3" font-family="Times New Roman,serif" font-size="14.00">correct_trainer</text>
<text text-anchor="start" x="514" y="-405.3" font-family="Times New Roman,serif" font-size="14.00">create</text>
<text text-anchor="start" x="514" y="-390.3" font-family="Times New Roman,serif" font-size="14.00">dashboard</text>
<text text-anchor="start" x="514" y="-375.3" font-family="Times New Roman,serif" font-size="14.00">destroy</text>
<text text-anchor="start" x="514" y="-360.3" font-family="Times New Roman,serif" font-size="14.00">edit</text>
<text text-anchor="start" x="514" y="-345.3" font-family="Times New Roman,serif" font-size="14.00">index</text>
<text text-anchor="start" x="514" y="-330.3" font-family="Times New Roman,serif" font-size="14.00">new</text>
<text text-anchor="start" x="514" y="-315.3" font-family="Times New Roman,serif" font-size="14.00">show</text>
<text text-anchor="start" x="514" y="-300.3" font-family="Times New Roman,serif" font-size="14.00">update</text>
<polyline fill="none" stroke="black" points="506,-292.5 708,-292.5 "/>
<polyline fill="none" stroke="black" points="506,-268.5 708,-268.5 "/>
<text text-anchor="start" x="514" y="-253.3" font-family="Times New Roman,serif" font-size="14.00">_layout</text>
<text text-anchor="start" x="514" y="-238.3" font-family="Times New Roman,serif" font-size="14.00">_run_process_action_callbacks</text>
</g>
<!-- UsersController -->
<g id="node11" class="node"><title>UsersController</title>
<polyline fill="none" stroke="black" points="265,-552.5 443,-552.5 "/>
<path fill="none" stroke="black" d="M443,-552.5C449,-552.5 455,-558.5 455,-564.5"/>
<polyline fill="none" stroke="black" points="455,-564.5 455,-828.5 "/>
<path fill="none" stroke="black" d="M455,-828.5C455,-834.5 449,-840.5 443,-840.5"/>
<polyline fill="none" stroke="black" points="443,-840.5 265,-840.5 "/>
<path fill="none" stroke="black" d="M265,-840.5C259,-840.5 253,-834.5 253,-828.5"/>
<polyline fill="none" stroke="black" points="253,-828.5 253,-564.5 "/>
<path fill="none" stroke="black" d="M253,-564.5C253,-558.5 259,-552.5 265,-552.5"/>
<text text-anchor="middle" x="354" y="-825.3" font-family="Times New Roman,serif" font-size="14.00">UsersController</text>
<polyline fill="none" stroke="black" points="253,-817.5 455,-817.5 "/>
<text text-anchor="start" x="261" y="-802.3" font-family="Times New Roman,serif" font-size="14.00">_one_time_conditions_valid_49?</text>
<text text-anchor="start" x="261" y="-787.3" font-family="Times New Roman,serif" font-size="14.00">_one_time_conditions_valid_54?</text>
<text text-anchor="start" x="261" y="-772.3" font-family="Times New Roman,serif" font-size="14.00">activate</text>
<text text-anchor="start" x="261" y="-757.3" font-family="Times New Roman,serif" font-size="14.00">admin_user</text>
<text text-anchor="start" x="261" y="-742.3" font-family="Times New Roman,serif" font-size="14.00">correct_user</text>
<text text-anchor="start" x="261" y="-727.3" font-family="Times New Roman,serif" font-size="14.00">create</text>
<text text-anchor="start" x="261" y="-712.3" font-family="Times New Roman,serif" font-size="14.00">dashboard</text>
<text text-anchor="start" x="261" y="-697.3" font-family="Times New Roman,serif" font-size="14.00">destroy</text>
<text text-anchor="start" x="261" y="-682.3" font-family="Times New Roman,serif" font-size="14.00">edit</text>
<text text-anchor="start" x="261" y="-667.3" font-family="Times New Roman,serif" font-size="14.00">index</text>
<text text-anchor="start" x="261" y="-652.3" font-family="Times New Roman,serif" font-size="14.00">new</text>
<text text-anchor="start" x="261" y="-637.3" font-family="Times New Roman,serif" font-size="14.00">show</text>
<text text-anchor="start" x="261" y="-622.3" font-family="Times New Roman,serif" font-size="14.00">update</text>
<polyline fill="none" stroke="black" points="253,-614.5 455,-614.5 "/>
<polyline fill="none" stroke="black" points="253,-590.5 455,-590.5 "/>
<text text-anchor="start" x="261" y="-575.3" font-family="Times New Roman,serif" font-size="14.00">_layout</text>
<text text-anchor="start" x="261" y="-560.3" font-family="Times New Roman,serif" font-size="14.00">_run_process_action_callbacks</text>
</g>
</g>
</svg>
