<?xml version="1.0" encoding="UTF-8" standalone="no"?>
<!DOCTYPE svg PUBLIC "-//W3C//DTD SVG 1.1//EN"
 "http://www.w3.org/Graphics/SVG/1.1/DTD/svg11.dtd">
<!-- Generated by graphviz version 2.28.0 (20110507.0327)
 -->
<!-- Title: models_diagram Pages: 1 -->
<svg width="602pt" height="1178pt"
 viewBox="0.00 0.00 602.00 1178.00" xmlns="http://www.w3.org/2000/svg" xmlns:xlink="http://www.w3.org/1999/xlink">
<g id="graph1" class="graph" transform="scale(1 1) rotate(0) translate(4 1174)">
<title>models_diagram</title>
<polygon fill="white" stroke="white" points="-4,5 -4,-1174 599,-1174 599,5 -4,5"/>
<!-- _diagram_info -->
<g id="node1" class="node"><title>_diagram_info</title>
<text text-anchor="start" x="7.5" y="-1133.6" font-family="Times New Roman,serif" font-size="13.00">Models diagram</text>
<text text-anchor="start" x="7.5" y="-1119.6" font-family="Times New Roman,serif" font-size="13.00">Date: Mar 28 2012 &#45; 02:22</text>
<text text-anchor="start" x="7.5" y="-1105.6" font-family="Times New Roman,serif" font-size="13.00">Migration version: 20120325084055</text>
<text text-anchor="start" x="7.5" y="-1091.6" font-family="Times New Roman,serif" font-size="13.00">Generated by RailRoady 1.0.7</text>
<text text-anchor="start" x="7.5" y="-1077.6" font-family="Times New Roman,serif" font-size="13.00">http://railroady.prestonlee.com</text>
</g>
<!-- Accesspin -->
<g id="node2" class="node"><title>Accesspin</title>
<polyline fill="none" stroke="black" points="239,-1063.5 347,-1063.5 "/>
<path fill="none" stroke="black" d="M347,-1063.5C353,-1063.5 359,-1069.5 359,-1075.5"/>
<polyline fill="none" stroke="black" points="359,-1075.5 359,-1142.5 "/>
<path fill="none" stroke="black" d="M359,-1142.5C359,-1148.5 353,-1154.5 347,-1154.5"/>
<polyline fill="none" stroke="black" points="347,-1154.5 239,-1154.5 "/>
<path fill="none" stroke="black" d="M239,-1154.5C233,-1154.5 227,-1148.5 227,-1142.5"/>
<polyline fill="none" stroke="black" points="227,-1142.5 227,-1075.5 "/>
<path fill="none" stroke="black" d="M227,-1075.5C227,-1069.5 233,-1063.5 239,-1063.5"/>
<text text-anchor="middle" x="293" y="-1139.3" font-family="Times New Roman,serif" font-size="14.00">Accesspin</text>
<polyline fill="none" stroke="black" points="227,-1131.5 359,-1131.5 "/>
<text text-anchor="start" x="235" y="-1116.3" font-family="Times New Roman,serif" font-size="14.00">value :string</text>
<text text-anchor="start" x="235" y="-1101.3" font-family="Times New Roman,serif" font-size="14.00">status :boolean</text>
<text text-anchor="start" x="235" y="-1086.3" font-family="Times New Roman,serif" font-size="14.00">created_at :datetime</text>
<text text-anchor="start" x="235" y="-1071.3" font-family="Times New Roman,serif" font-size="14.00">updated_at :datetime</text>
</g>
<!-- Branch -->
<g id="node3" class="node"><title>Branch</title>
<polyline fill="none" stroke="black" points="389,-1048.5 501,-1048.5 "/>
<path fill="none" stroke="black" d="M501,-1048.5C507,-1048.5 513,-1054.5 513,-1060.5"/>
<polyline fill="none" stroke="black" points="513,-1060.5 513,-1157.5 "/>
<path fill="none" stroke="black" d="M513,-1157.5C513,-1163.5 507,-1169.5 501,-1169.5"/>
<polyline fill="none" stroke="black" points="501,-1169.5 389,-1169.5 "/>
<path fill="none" stroke="black" d="M389,-1169.5C383,-1169.5 377,-1163.5 377,-1157.5"/>
<polyline fill="none" stroke="black" points="377,-1157.5 377,-1060.5 "/>
<path fill="none" stroke="black" d="M377,-1060.5C377,-1054.5 383,-1048.5 389,-1048.5"/>
<text text-anchor="middle" x="445" y="-1154.3" font-family="Times New Roman,serif" font-size="14.00">Branch</text>
<polyline fill="none" stroke="black" points="377,-1146.5 513,-1146.5 "/>
<text text-anchor="start" x="385" y="-1131.3" font-family="Times New Roman,serif" font-size="14.00">name :string</text>
<text text-anchor="start" x="385" y="-1116.3" font-family="Times New Roman,serif" font-size="14.00">country :string</text>
<text text-anchor="start" x="385" y="-1101.3" font-family="Times New Roman,serif" font-size="14.00">created_at :datetime</text>
<text text-anchor="start" x="385" y="-1086.3" font-family="Times New Roman,serif" font-size="14.00">updated_at :datetime</text>
<text text-anchor="start" x="385" y="-1071.3" font-family="Times New Roman,serif" font-size="14.00">branchstate :string</text>
<text text-anchor="start" x="385" y="-1056.3" font-family="Times New Roman,serif" font-size="14.00">branchaddress :string</text>
</g>
<!-- User -->
<g id="node8" class="node"><title>User</title>
<polyline fill="none" stroke="black" points="326.5,-755 563.5,-755 "/>
<path fill="none" stroke="black" d="M563.5,-755C569.5,-755 575.5,-761 575.5,-767"/>
<polyline fill="none" stroke="black" points="575.5,-767 575.5,-999 "/>
<path fill="none" stroke="black" d="M575.5,-999C575.5,-1005 569.5,-1011 563.5,-1011"/>
<polyline fill="none" stroke="black" points="563.5,-1011 326.5,-1011 "/>
<path fill="none" stroke="black" d="M326.5,-1011C320.5,-1011 314.5,-1005 314.5,-999"/>
<polyline fill="none" stroke="black" points="314.5,-999 314.5,-767 "/>
<path fill="none" stroke="black" d="M314.5,-767C314.5,-761 320.5,-755 326.5,-755"/>
<text text-anchor="middle" x="445" y="-995.8" font-family="Times New Roman,serif" font-size="14.00">User</text>
<polyline fill="none" stroke="black" points="314.5,-988 575.5,-988 "/>
<text text-anchor="start" x="322.5" y="-972.8" font-family="Times New Roman,serif" font-size="14.00">email :string</text>
<text text-anchor="start" x="322.5" y="-957.8" font-family="Times New Roman,serif" font-size="14.00">crypted_password :string</text>
<text text-anchor="start" x="322.5" y="-942.8" font-family="Times New Roman,serif" font-size="14.00">salt :string</text>
<text text-anchor="start" x="322.5" y="-927.8" font-family="Times New Roman,serif" font-size="14.00">created_at :datetime</text>
<text text-anchor="start" x="322.5" y="-912.8" font-family="Times New Roman,serif" font-size="14.00">updated_at :datetime</text>
<text text-anchor="start" x="322.5" y="-897.8" font-family="Times New Roman,serif" font-size="14.00">reset_password_token :string</text>
<text text-anchor="start" x="322.5" y="-882.8" font-family="Times New Roman,serif" font-size="14.00">reset_password_token_expires_at :datetime</text>
<text text-anchor="start" x="322.5" y="-867.8" font-family="Times New Roman,serif" font-size="14.00">reset_password_email_sent_at :datetime</text>
<text text-anchor="start" x="322.5" y="-852.8" font-family="Times New Roman,serif" font-size="14.00">lock_expires_at :datetime</text>
<text text-anchor="start" x="322.5" y="-837.8" font-family="Times New Roman,serif" font-size="14.00">activation_state :string</text>
<text text-anchor="start" x="322.5" y="-822.8" font-family="Times New Roman,serif" font-size="14.00">activation_token :string</text>
<text text-anchor="start" x="322.5" y="-807.8" font-family="Times New Roman,serif" font-size="14.00">activation_token_expires_at :datetime</text>
<text text-anchor="start" x="322.5" y="-792.8" font-family="Times New Roman,serif" font-size="14.00">admin :boolean</text>
<text text-anchor="start" x="322.5" y="-777.8" font-family="Times New Roman,serif" font-size="14.00">employee :boolean</text>
<text text-anchor="start" x="322.5" y="-762.8" font-family="Times New Roman,serif" font-size="14.00">temp :string</text>
</g>
<!-- Branch&#45;&gt;User -->
<g id="edge2" class="edge"><title>Branch&#45;&gt;User</title>
<path fill="none" stroke="#0b372b" d="M445,-1040.2C445,-1034.07 445,-1027.73 445,-1021.28"/>
<ellipse fill="none" stroke="#0b372b" cx="445" cy="-1044.27" rx="4" ry="4"/>
<polygon fill="#0b372b" stroke="#0b372b" points="445,-1021.05 449.5,-1011.05 445,-1016.05 445,-1011.05 445,-1011.05 445,-1011.05 445,-1016.05 440.5,-1011.05 445,-1021.05 445,-1021.05"/>
</g>
<!-- Course -->
<g id="node4" class="node"><title>Course</title>
<polyline fill="none" stroke="black" points="433.5,-303 582.5,-303 "/>
<path fill="none" stroke="black" d="M582.5,-303C588.5,-303 594.5,-309 594.5,-315"/>
<polyline fill="none" stroke="black" points="594.5,-315 594.5,-517 "/>
<path fill="none" stroke="black" d="M594.5,-517C594.5,-523 588.5,-529 582.5,-529"/>
<polyline fill="none" stroke="black" points="582.5,-529 433.5,-529 "/>
<path fill="none" stroke="black" d="M433.5,-529C427.5,-529 421.5,-523 421.5,-517"/>
<polyline fill="none" stroke="black" points="421.5,-517 421.5,-315 "/>
<path fill="none" stroke="black" d="M421.5,-315C421.5,-309 427.5,-303 433.5,-303"/>
<text text-anchor="middle" x="508" y="-513.8" font-family="Times New Roman,serif" font-size="14.00">Course</text>
<polyline fill="none" stroke="black" points="421.5,-506 594.5,-506 "/>
<text text-anchor="start" x="429.5" y="-490.8" font-family="Times New Roman,serif" font-size="14.00">date_of_course :string</text>
<text text-anchor="start" x="429.5" y="-475.8" font-family="Times New Roman,serif" font-size="14.00">time_of_course :string</text>
<text text-anchor="start" x="429.5" y="-460.8" font-family="Times New Roman,serif" font-size="14.00">roomnumber :integer</text>
<text text-anchor="start" x="429.5" y="-445.8" font-family="Times New Roman,serif" font-size="14.00">tutor :string</text>
<text text-anchor="start" x="429.5" y="-430.8" font-family="Times New Roman,serif" font-size="14.00">category_of_course :integer</text>
<text text-anchor="start" x="429.5" y="-415.8" font-family="Times New Roman,serif" font-size="14.00">name :string</text>
<text text-anchor="start" x="429.5" y="-400.8" font-family="Times New Roman,serif" font-size="14.00">description :string</text>
<text text-anchor="start" x="429.5" y="-385.8" font-family="Times New Roman,serif" font-size="14.00">status :string</text>
<text text-anchor="start" x="429.5" y="-370.8" font-family="Times New Roman,serif" font-size="14.00">duration :string</text>
<text text-anchor="start" x="429.5" y="-355.8" font-family="Times New Roman,serif" font-size="14.00">maxallowed :integer</text>
<text text-anchor="start" x="429.5" y="-340.8" font-family="Times New Roman,serif" font-size="14.00">created_at :datetime</text>
<text text-anchor="start" x="429.5" y="-325.8" font-family="Times New Roman,serif" font-size="14.00">updated_at :datetime</text>
<text text-anchor="start" x="429.5" y="-310.8" font-family="Times New Roman,serif" font-size="14.00">slug :string</text>
</g>
<!-- Employee -->
<g id="node5" class="node"><title>Employee</title>
<polyline fill="none" stroke="black" points="360,-114.5 468,-114.5 "/>
<path fill="none" stroke="black" d="M468,-114.5C474,-114.5 480,-120.5 480,-126.5"/>
<polyline fill="none" stroke="black" points="480,-126.5 480,-253.5 "/>
<path fill="none" stroke="black" d="M480,-253.5C480,-259.5 474,-265.5 468,-265.5"/>
<polyline fill="none" stroke="black" points="468,-265.5 360,-265.5 "/>
<path fill="none" stroke="black" d="M360,-265.5C354,-265.5 348,-259.5 348,-253.5"/>
<polyline fill="none" stroke="black" points="348,-253.5 348,-126.5 "/>
<path fill="none" stroke="black" d="M348,-126.5C348,-120.5 354,-114.5 360,-114.5"/>
<text text-anchor="middle" x="414" y="-250.3" font-family="Times New Roman,serif" font-size="14.00">Employee</text>
<polyline fill="none" stroke="black" points="348,-242.5 480,-242.5 "/>
<text text-anchor="start" x="356" y="-227.3" font-family="Times New Roman,serif" font-size="14.00">firstname :string</text>
<text text-anchor="start" x="356" y="-212.3" font-family="Times New Roman,serif" font-size="14.00">lastname :string</text>
<text text-anchor="start" x="356" y="-197.3" font-family="Times New Roman,serif" font-size="14.00">sex :string</text>
<text text-anchor="start" x="356" y="-182.3" font-family="Times New Roman,serif" font-size="14.00">level :integer</text>
<text text-anchor="start" x="356" y="-167.3" font-family="Times New Roman,serif" font-size="14.00">mobile :integer</text>
<text text-anchor="start" x="356" y="-152.3" font-family="Times New Roman,serif" font-size="14.00">created_at :datetime</text>
<text text-anchor="start" x="356" y="-137.3" font-family="Times New Roman,serif" font-size="14.00">updated_at :datetime</text>
<text text-anchor="start" x="356" y="-122.3" font-family="Times New Roman,serif" font-size="14.00">email :string</text>
</g>
<!-- Course&#45;&gt;Employee -->
<g id="edge6" class="edge"><title>Course&#45;&gt;Employee</title>
<path fill="none" stroke="#d227fb" d="M456.916,-293.268C454.332,-287.11 451.764,-280.991 449.245,-274.988"/>
<polygon fill="#d227fb" stroke="#d227fb" points="456.993,-293.451 456.713,-304.413 458.928,-298.061 460.862,-302.672 460.862,-302.672 460.862,-302.672 458.928,-298.061 465.012,-300.931 456.993,-293.451 456.993,-293.451"/>
<polygon fill="#d227fb" stroke="#d227fb" points="449.2,-274.88 449.479,-263.917 447.265,-270.269 445.33,-265.659 445.33,-265.659 445.33,-265.659 447.265,-270.269 441.181,-267.4 449.2,-274.88 449.2,-274.88"/>
</g>
<!-- Progress -->
<g id="node6" class="node"><title>Progress</title>
<polyline fill="none" stroke="black" points="407,-1 515,-1 "/>
<path fill="none" stroke="black" d="M515,-1C521,-1 527,-7 527,-13"/>
<polyline fill="none" stroke="black" points="527,-13 527,-65 "/>
<path fill="none" stroke="black" d="M527,-65C527,-71 521,-77 515,-77"/>
<polyline fill="none" stroke="black" points="515,-77 407,-77 "/>
<path fill="none" stroke="black" d="M407,-77C401,-77 395,-71 395,-65"/>
<polyline fill="none" stroke="black" points="395,-65 395,-13 "/>
<path fill="none" stroke="black" d="M395,-13C395,-7 401,-1 407,-1"/>
<text text-anchor="middle" x="461" y="-61.8" font-family="Times New Roman,serif" font-size="14.00">Progress</text>
<polyline fill="none" stroke="black" points="395,-54 527,-54 "/>
<text text-anchor="start" x="403" y="-38.8" font-family="Times New Roman,serif" font-size="14.00">status :integer</text>
<text text-anchor="start" x="403" y="-23.8" font-family="Times New Roman,serif" font-size="14.00">created_at :datetime</text>
<text text-anchor="start" x="403" y="-8.8" font-family="Times New Roman,serif" font-size="14.00">updated_at :datetime</text>
</g>
<!-- Course&#45;&gt;Progress -->
<g id="edge4" class="edge"><title>Course&#45;&gt;Progress</title>
<path fill="none" stroke="#c6103d" d="M508.591,-294.659C506.782,-239.133 501.65,-172.664 489,-114 487.065,-105.027 484.232,-95.6955 481.102,-86.8047"/>
<ellipse fill="none" stroke="#c6103d" cx="508.714" cy="-298.771" rx="4" ry="4"/>
<polygon fill="#c6103d" stroke="#c6103d" points="481.082,-86.7489 481.839,-75.8092 479.35,-82.0585 477.618,-77.368 477.618,-77.368 477.618,-77.368 479.35,-82.0585 473.396,-78.9269 481.082,-86.7489 481.082,-86.7489"/>
</g>
<!-- Employee&#45;&gt;Progress -->
<g id="edge8" class="edge"><title>Employee&#45;&gt;Progress</title>
<path fill="none" stroke="#794190" d="M440.085,-106.306C442.128,-99.8298 444.144,-93.4373 446.071,-87.3273"/>
<ellipse fill="none" stroke="#794190" cx="438.841" cy="-110.249" rx="4.00001" ry="4.00001"/>
<polygon fill="#794190" stroke="#794190" points="446.211,-86.8834 453.511,-78.7004 447.715,-82.115 449.22,-77.3466 449.22,-77.3466 449.22,-77.3466 447.715,-82.115 444.928,-75.9929 446.211,-86.8834 446.211,-86.8834"/>
</g>
<!-- Trainer -->
<g id="node7" class="node"><title>Trainer</title>
<polyline fill="none" stroke="black" points="443,-566.5 551,-566.5 "/>
<path fill="none" stroke="black" d="M551,-566.5C557,-566.5 563,-572.5 563,-578.5"/>
<polyline fill="none" stroke="black" points="563,-578.5 563,-705.5 "/>
<path fill="none" stroke="black" d="M563,-705.5C563,-711.5 557,-717.5 551,-717.5"/>
<polyline fill="none" stroke="black" points="551,-717.5 443,-717.5 "/>
<path fill="none" stroke="black" d="M443,-717.5C437,-717.5 431,-711.5 431,-705.5"/>
<polyline fill="none" stroke="black" points="431,-705.5 431,-578.5 "/>
<path fill="none" stroke="black" d="M431,-578.5C431,-572.5 437,-566.5 443,-566.5"/>
<text text-anchor="middle" x="497" y="-702.3" font-family="Times New Roman,serif" font-size="14.00">Trainer</text>
<polyline fill="none" stroke="black" points="431,-694.5 563,-694.5 "/>
<text text-anchor="start" x="439" y="-679.3" font-family="Times New Roman,serif" font-size="14.00">firstname :string</text>
<text text-anchor="start" x="439" y="-664.3" font-family="Times New Roman,serif" font-size="14.00">lastname :string</text>
<text text-anchor="start" x="439" y="-649.3" font-family="Times New Roman,serif" font-size="14.00">sex :string</text>
<text text-anchor="start" x="439" y="-634.3" font-family="Times New Roman,serif" font-size="14.00">handle :string</text>
<text text-anchor="start" x="439" y="-619.3" font-family="Times New Roman,serif" font-size="14.00">mobile :integer</text>
<text text-anchor="start" x="439" y="-604.3" font-family="Times New Roman,serif" font-size="14.00">created_at :datetime</text>
<text text-anchor="start" x="439" y="-589.3" font-family="Times New Roman,serif" font-size="14.00">updated_at :datetime</text>
<text text-anchor="start" x="439" y="-574.3" font-family="Times New Roman,serif" font-size="14.00">email :string</text>
</g>
<!-- Trainer&#45;&gt;Course -->
<g id="edge10" class="edge"><title>Trainer&#45;&gt;Course</title>
<path fill="none" stroke="#885407" d="M501.067,-558.188C501.371,-551.985 501.682,-545.653 501.995,-539.276"/>
<ellipse fill="none" stroke="#885407" cx="500.859" cy="-562.416" rx="4" ry="4"/>
<polygon fill="#885407" stroke="#885407" points="501.998,-539.219 506.983,-529.451 502.243,-534.225 502.489,-529.231 502.489,-529.231 502.489,-529.231 502.243,-534.225 497.994,-529.01 501.998,-539.219 501.998,-539.219"/>
</g>
<!-- User&#45;&gt;Employee -->
<g id="edge14" class="edge"><title>User&#45;&gt;Employee</title>
<path fill="none" stroke="#414d27" d="M425.047,-746.81C423.915,-737.072 422.882,-727.393 422,-718 407.415,-562.605 408.714,-380.329 411.205,-275.979"/>
<ellipse fill="none" stroke="#414d27" cx="425.548" cy="-751.026" rx="4.00001" ry="4.00001"/>
<polygon fill="#414d27" stroke="#414d27" points="411.209,-275.815 415.956,-265.93 411.333,-270.816 411.458,-265.818 411.458,-265.818 411.458,-265.818 411.333,-270.816 406.959,-265.706 411.209,-275.815 411.209,-275.815"/>
</g>
<!-- User&#45;&gt;Trainer -->
<g id="edge12" class="edge"><title>User&#45;&gt;Trainer</title>
<path fill="none" stroke="#c081cc" d="M474.42,-746.781C475.843,-740.239 477.253,-733.761 478.631,-727.428"/>
<ellipse fill="none" stroke="#c081cc" cx="473.525" cy="-750.894" rx="4.00001" ry="4.00001"/>
<polygon fill="#c081cc" stroke="#c081cc" points="478.642,-727.376 485.165,-718.561 479.705,-722.49 480.768,-717.605 480.768,-717.605 480.768,-717.605 479.705,-722.49 476.371,-716.648 478.642,-727.376 478.642,-727.376"/>
</g>
</g>
</svg>
