<?xml version="1.0" encoding="UTF-8" standalone="no"?>
<!DOCTYPE svg PUBLIC "-//W3C//DTD SVG 1.1//EN"
 "http://www.w3.org/Graphics/SVG/1.1/DTD/svg11.dtd">
<!-- Generated by graphviz version 2.28.0 (20110507.0327)
 -->
<!-- Title: models_diagram Pages: 1 -->
<svg width="456pt" height="446pt"
 viewBox="0.00 0.00 456.00 446.00" xmlns="http://www.w3.org/2000/svg" xmlns:xlink="http://www.w3.org/1999/xlink">
<g id="graph1" class="graph" transform="scale(1 1) rotate(0) translate(4 442)">
<title>models_diagram</title>
<polygon fill="white" stroke="white" points="-4,5 -4,-442 453,-442 453,5 -4,5"/>
<!-- _diagram_info -->
<g id="node1" class="node"><title>_diagram_info</title>
<text text-anchor="start" x="7.5" y="-423.6" font-family="Times New Roman,serif" font-size="13.00">Models diagram</text>
<text text-anchor="start" x="7.5" y="-409.6" font-family="Times New Roman,serif" font-size="13.00">Date: Mar 28 2012 &#45; 02:22</text>
<text text-anchor="start" x="7.5" y="-395.6" font-family="Times New Roman,serif" font-size="13.00">Migration version: 20120325084055</text>
<text text-anchor="start" x="7.5" y="-381.6" font-family="Times New Roman,serif" font-size="13.00">Generated by RailRoady 1.0.7</text>
<text text-anchor="start" x="7.5" y="-367.6" font-family="Times New Roman,serif" font-size="13.00">http://railroady.prestonlee.com</text>
</g>
<!-- Accesspin -->
<g id="node2" class="node"><title>Accesspin</title>
<ellipse fill="none" stroke="black" cx="275" cy="-399" rx="48.6179" ry="18"/>
<text text-anchor="middle" x="275" y="-395.3" font-family="Times New Roman,serif" font-size="14.00">Accesspin</text>
</g>
<!-- Branch -->
<g id="node3" class="node"><title>Branch</title>
<ellipse fill="none" stroke="black" cx="378" cy="-399" rx="36.096" ry="18"/>
<text text-anchor="middle" x="378" y="-395.3" font-family="Times New Roman,serif" font-size="14.00">Branch</text>
</g>
<!-- User -->
<g id="node8" class="node"><title>User</title>
<ellipse fill="none" stroke="black" cx="378" cy="-306" rx="27.4223" ry="18"/>
<text text-anchor="middle" x="378" y="-302.3" font-family="Times New Roman,serif" font-size="14.00">User</text>
</g>
<!-- Branch&#45;&gt;User -->
<g id="edge2" class="edge"><title>Branch&#45;&gt;User</title>
<path fill="none" stroke="#2bb2fa" d="M378,-372.729C378,-360.725 378,-346.362 378,-334.129"/>
<ellipse fill="none" stroke="#2bb2fa" cx="378" cy="-376.884" rx="4" ry="4"/>
<polygon fill="#2bb2fa" stroke="#2bb2fa" points="378,-334.04 382.5,-324.04 378,-329.04 378,-324.04 378,-324.04 378,-324.04 378,-329.04 373.5,-324.04 378,-334.04 378,-334.04"/>
</g>
<!-- Course -->
<g id="node4" class="node"><title>Course</title>
<ellipse fill="none" stroke="black" cx="411" cy="-162" rx="37.0701" ry="18"/>
<text text-anchor="middle" x="411" y="-158.3" font-family="Times New Roman,serif" font-size="14.00">Course</text>
</g>
<!-- Employee -->
<g id="node5" class="node"><title>Employee</title>
<ellipse fill="none" stroke="black" cx="346" cy="-90" rx="46.1964" ry="18"/>
<text text-anchor="middle" x="346" y="-86.3" font-family="Times New Roman,serif" font-size="14.00">Employee</text>
</g>
<!-- Course&#45;&gt;Employee -->
<g id="edge6" class="edge"><title>Course&#45;&gt;Employee</title>
<path fill="none" stroke="#8aa3f9" d="M389.205,-137.528C382.439,-130.242 374.976,-122.205 368.184,-114.891"/>
<polygon fill="#8aa3f9" stroke="#8aa3f9" points="389.446,-137.788 392.953,-148.178 392.848,-141.452 396.25,-145.116 396.25,-145.116 396.25,-145.116 392.848,-141.452 399.548,-142.054 389.446,-137.788 389.446,-137.788"/>
<polygon fill="#8aa3f9" stroke="#8aa3f9" points="367.947,-114.635 364.44,-104.245 364.544,-110.971 361.142,-107.307 361.142,-107.307 361.142,-107.307 364.544,-110.971 357.845,-110.369 367.947,-114.635 367.947,-114.635"/>
</g>
<!-- Progress -->
<g id="node6" class="node"><title>Progress</title>
<ellipse fill="none" stroke="black" cx="383" cy="-18" rx="42.3456" ry="18"/>
<text text-anchor="middle" x="383" y="-14.3" font-family="Times New Roman,serif" font-size="14.00">Progress</text>
</g>
<!-- Course&#45;&gt;Progress -->
<g id="edge4" class="edge"><title>Course&#45;&gt;Progress</title>
<path fill="none" stroke="#2bfb76" d="M409.6,-135.525C408.26,-117.596 405.716,-93.1265 401,-72 399.043,-63.2346 396.153,-53.8903 393.259,-45.5276"/>
<ellipse fill="none" stroke="#2bfb76" cx="409.891" cy="-139.766" rx="4" ry="4"/>
<polygon fill="#2bfb76" stroke="#2bfb76" points="393.185,-45.3241 394.021,-34.3901 391.487,-40.6214 389.789,-35.9187 389.789,-35.9187 389.789,-35.9187 391.487,-40.6214 385.556,-37.4472 393.185,-45.3241 393.185,-45.3241"/>
</g>
<!-- Employee&#45;&gt;Progress -->
<g id="edge8" class="edge"><title>Employee&#45;&gt;Progress</title>
<path fill="none" stroke="#a9e64b" d="M358.837,-64.7144C362.226,-58.3016 365.897,-51.3577 369.329,-44.8648"/>
<ellipse fill="none" stroke="#a9e64b" cx="356.826" cy="-68.5186" rx="4.00002" ry="4.00002"/>
<polygon fill="#a9e64b" stroke="#a9e64b" points="369.453,-44.63 378.104,-37.8919 371.789,-40.2095 374.126,-35.789 374.126,-35.789 374.126,-35.789 371.789,-40.2095 370.147,-33.6861 369.453,-44.63 369.453,-44.63"/>
</g>
<!-- Trainer -->
<g id="node7" class="node"><title>Trainer</title>
<ellipse fill="none" stroke="black" cx="410" cy="-234" rx="36.096" ry="18"/>
<text text-anchor="middle" x="410" y="-230.3" font-family="Times New Roman,serif" font-size="14.00">Trainer</text>
</g>
<!-- Trainer&#45;&gt;Course -->
<g id="edge10" class="edge"><title>Trainer&#45;&gt;Course</title>
<path fill="none" stroke="#75d75a" d="M410.362,-207.64C410.442,-202.063 410.527,-196.132 410.607,-190.476"/>
<ellipse fill="none" stroke="#75d75a" cx="410.304" cy="-211.697" rx="4" ry="4"/>
<polygon fill="#75d75a" stroke="#75d75a" points="410.613,-190.103 415.255,-180.169 410.684,-185.104 410.756,-180.104 410.756,-180.104 410.756,-180.104 410.684,-185.104 406.256,-180.04 410.613,-190.103 410.613,-190.103"/>
</g>
<!-- User&#45;&gt;Employee -->
<g id="edge14" class="edge"><title>User&#45;&gt;Employee</title>
<path fill="none" stroke="#58629d" d="M371.181,-279.933C368.97,-271.149 366.662,-261.184 365,-252 356.573,-205.424 351.018,-150.562 348.199,-118.401"/>
<ellipse fill="none" stroke="#58629d" cx="372.246" cy="-284.056" rx="4.00001" ry="4.00001"/>
<polygon fill="#58629d" stroke="#58629d" points="348.164,-117.987 351.799,-107.641 347.739,-113.005 347.315,-108.023 347.315,-108.023 347.315,-108.023 347.739,-113.005 342.832,-108.405 348.164,-117.987 348.164,-117.987"/>
</g>
<!-- User&#45;&gt;Trainer -->
<g id="edge12" class="edge"><title>User&#45;&gt;Trainer</title>
<path fill="none" stroke="#d079c7" d="M388.943,-281.062C391.882,-274.632 395.076,-267.647 398.066,-261.106"/>
<ellipse fill="none" stroke="#d079c7" cx="387.247" cy="-284.773" rx="4.00002" ry="4.00002"/>
<polygon fill="#d079c7" stroke="#d079c7" points="398.091,-261.051 406.341,-253.827 400.17,-256.504 402.249,-251.956 402.249,-251.956 402.249,-251.956 400.17,-256.504 398.156,-250.085 398.091,-261.051 398.091,-261.051"/>
</g>
</g>
</svg>
